Patient4_TMGait_0pt3_01_left_06_GRF.mot
version=1
nRows=78
nColumns=19
inDegrees=no
endheader
time	F1x	F1y	F1z	M1x	M1y	M1z	F2x	F2y	F2z	M2x	M2y	M2z	EC1x	EC1y	EC1z	EC2x	EC2y	EC2z
10.55	10.3214	-0.84943	1.6538	1.1088	1.5176	-2.11	-22.0163	723.7056	-51.1861	230.0646	64.8802	781.9661	-0.0592	0.0182	-0.0073	-0.0462	0.0165	0.9585
10.5695	6.9454	-0.21266	1.1633	0.62152	0.96071	-1.0594	-20.7661	724.2319	-52.1724	229.9509	65.8886	782.1242	-0.0592	0.0182	-0.0073	-0.0462	0.0165	0.9585
10.589	4.0814	0.34411	0.76177	0.20015	0.47647	-0.13664	-19.5151	728.2318	-52.6483	231.2036	66.3659	785.2037	-0.0592	0.0182	-0.0073	-0.0462	0.0165	0.9585
10.6085	1.8957	0.79303	0.46764	-0.12892	0.099783	0.59982	-18.2146	737.1425	-52.4649	234.4053	66.1056	792.5635	-0.0592	0.0182	-0.0073	-0.0462	0.0165	0.9585
10.628	0.37808	1.1237	0.27434	-0.3635	-0.16518	1.1334	-16.8003	751.9085	-51.6191	239.9164	65.0481	805.119	-0.0592	0.0182	-0.0073	-0.0462	0.0165	0.9585
10.6475	-0.57226	1.3375	0.16336	-0.51451	-0.33428	1.4758	-15.3	772.6536	-50.2316	247.7541	63.2983	823.0189	-0.0592	0.0182	-0.0073	-0.0462	0.0165	0.9585
10.667	-1.0895	1.4421	0.11257	-0.59545	-0.43092	1.654	-13.8338	798.5401	-48.521	257.5583	61.0975	845.5023	-0.0592	0.0182	-0.0073	-0.0462	0.0165	0.9585
10.6865	-1.3112	1.4439	0.1015	-0.61615	-0.47912	1.6854	-12.5072	827.7104	-46.7435	268.5966	58.7228	870.8084	-0.0592	0.0182	-0.0073	-0.0462	0.0165	0.9585
10.706	-1.3566	1.3328	0.11256	-0.57794	-0.49835	1.5691	-11.3379	857.324	-45.1084	279.8012	56.3807	896.1931	-0.0592	0.0182	-0.0073	-0.0462	0.0165	0.9585
10.7255	-1.318	1.077	0.12977	-0.47268	-0.50318	1.2823	-10.2682	883.7824	-43.7404	289.8607	54.1771	918.1532	-0.0592	0.0182	-0.0073	-0.0462	0.0165	0.9585
10.745	-1.2598	0.63184	0.14061	-0.286	-0.50364	0.78071	-9.1959	903.2855	-42.6788	297.4194	52.1295	932.9861	-0.0592	0.0182	-0.0073	-0.0462	0.0165	0.9585
10.7645	-1.2189	-0.048411	0.13126	-0.0016896	-0.49872	0.015	-7.9824	912.6176	-41.8855	301.3472	50.1765	937.5792	-0.0592	0.0182	-0.0073	-0.0462	0.0165	0.9585
10.784	-1.2047	-0.9932	0.090131	0.39009	-0.47634	-1.0455	-6.488	909.8744	-41.2704	300.9829	48.2111	930.1387	-0.0592	0.0182	-0.0073	-0.0462	0.0165	0.9585
10.8035	-1.201	-2.1903	0.0094467	0.88153	-0.41717	-2.3856	-4.5956	894.8707	-40.7355	296.2684	46.1307	910.5921	-0.0592	0.0182	-0.0073	-0.0462	0.0165	0.9585
10.823	-1.1685	-3.5509	-0.11619	1.4335	-0.29653	-3.9096	-2.2223	869.1727	-40.2158	287.7534	43.8772	880.5918	-0.0592	0.0182	-0.0073	-0.0462	0.0165	0.9585
10.8425	-1.0443	-4.8635	-0.28701	1.9584	-0.082514	-5.3886	0.65983	835.7854	-39.6933	276.4838	41.4557	843.186	-0.0592	0.0182	-0.0073	-0.0462	0.0165	0.9585
10.862	-0.74081	-5.7509	-0.49921	2.3005	0.26168	-6.4128	4.0168	798.594	-39.1934	263.808	38.9334	802.2498	-0.0592	0.0182	-0.0073	-0.0462	0.0165	0.9585
10.8815	-0.14964	-5.6281	-0.74352	2.2184	0.76822	-6.3297	7.766	761.694	-38.7591	251.1479	36.4073	761.8203	-0.0592	0.0182	-0.0073	-0.0462	0.0165	0.9585
10.901	0.84828	-3.668	-0.99381	1.3741	1.4518	-4.2078	11.7729	728.7001	-38.4266	239.7636	33.9794	725.4255	-0.0592	0.0182	-0.0073	-0.0462	0.0165	0.9585
10.9205	2.3585	1.1932	-1.1917	-0.66357	2.2878	1.148	15.8655	702.1629	-38.2119	230.5538	31.7356	695.5242	-0.0592	0.0182	-0.0073	-0.0462	0.0165	0.9585
10.94	4.4333	10.1719	-1.2372	-4.3841	3.1841	11.1175	19.8564	683.1886	-38.1001	223.9231	29.7274	673.1586	-0.0592	0.0182	-0.0073	-0.0462	0.0165	0.9585
10.9595	7.0195	24.4425	-0.98453	-10.2572	3.9503	27.0529	23.5389	671.2872	-38.048	219.7271	27.9763	657.837	-0.0592	0.0182	-0.0073	-0.0462	0.0165	0.9585
10.979	9.8742	44.8114	-0.23752	-18.5967	4.2604	49.9029	26.6977	664.5001	-37.9856	217.3132	26.4785	647.6789	-0.0592	0.0182	-0.0073	-0.0462	0.0165	0.9585
10.9985	12.3865	71.2878	1.2284	-29.3823	3.6046	79.7245	29.128	659.8381	-37.8234	215.6701	25.2046	639.8446	-0.0592	0.0182	-0.0073	-0.0462	0.0165	0.9585
11.018	13.5918	102.72	3.6327	-42.115	1.3446	115.2754	30.6553	653.9596	-37.4649	213.6598	24.1112	631.1895	-0.0592	0.0182	-0.0073	-0.0462	0.0165	0.9585
11.0375	13.0103	137.2372	7.0541	-56.0087	-2.7943	154.4851	31.1892	643.9456	-36.8372	210.2813	23.1515	618.9848	-0.0592	0.0182	-0.0073	-0.0462	0.0165	0.9585
11.057	10.8057	172.9413	11.2531	-70.3001	-8.4638	195.179	30.7714	627.9035	-35.9161	204.8792	22.2835	601.4689	-0.0592	0.0182	-0.0073	-0.0462	0.0165	0.9585
11.0765	7.4311	208.3861	15.7164	-84.4457	-14.8816	235.6423	29.5712	605.2917	-34.7089	197.2613	21.4611	578.1355	-0.0592	0.0182	-0.0073	-0.0462	0.0165	0.9585
11.096	3.3593	243.0876	19.9059	-98.2976	-21.238	275.2585	27.8542	576.9348	-33.2518	187.7042	20.6352	549.737	-0.0592	0.0182	-0.0073	-0.0462	0.0165	0.9585
11.1155	-1.0327	277.2961	23.529	-111.9828	-27.0569	314.2835	25.8807	544.5691	-31.6151	176.796	19.783	517.8627	-0.0592	0.0182	-0.0073	-0.0462	0.0165	0.9585
11.135	-5.4459	311.2766	26.5046	-125.6055	-32.1395	353.0276	23.8044	510.1534	-29.8959	165.2051	18.9339	484.3078	-0.0592	0.0182	-0.0073	-0.0462	0.0165	0.9585
11.1545	-9.6195	344.8471	28.8969	-139.0672	-36.4734	391.3206	21.6448	475.3943	-28.1768	153.5194	18.1414	450.6379	-0.0592	0.0182	-0.0073	-0.0462	0.0165	0.9585
11.174	-13.3287	377.2251	30.8416	-152.0174	-40.1457	428.3365	19.3391	441.6103	-26.4953	142.1947	17.4462	418.0574	-0.0592	0.0182	-0.0073	-0.0462	0.0165	0.9585
11.1935	-16.4328	407.2783	32.4459	-163.9689	-43.2453	462.8706	16.8244	409.8179	-24.8612	131.5746	16.8654	387.4816	-0.0592	0.0182	-0.0073	-0.0462	0.0165	0.9585
11.213	-18.894	433.9435	33.7208	-174.4726	-45.7873	493.7999	14.11	380.8034	-23.2848	121.9079	16.3981	359.6048	-0.0592	0.0182	-0.0073	-0.0462	0.0165	0.9585
11.2325	-20.7464	456.4445	34.5873	-183.2039	-47.7006	520.3121	11.2987	355.1332	-21.7907	113.3576	16.0244	334.9176	-0.0592	0.0182	-0.0073	-0.0462	0.0165	0.9585
11.252	-22.0438	474.31	34.9557	-189.969	-48.8922	541.8971	8.5741	333.1193	-20.4001	106.0002	15.6958	313.6782	-0.0592	0.0182	-0.0073	-0.0462	0.0165	0.9585
11.2715	-22.8234	487.3838	34.8072	-194.7106	-49.3249	558.3351	6.1623	314.7611	-19.134	99.817	15.3518	295.8557	-0.0592	0.0182	-0.0073	-0.0462	0.0165	0.9585
11.291	-23.1012	495.9164	34.1984	-197.549	-49.0347	569.8022	4.256	299.7335	-18.0167	94.694	14.9501	281.1228	-0.0592	0.0182	-0.0073	-0.0462	0.0165	0.9585
11.3105	-22.88	500.5961	33.2219	-198.7949	-48.0973	576.9073	2.9657	287.4019	-17.0787	90.4289	14.4841	268.8701	-0.0592	0.0182	-0.0073	-0.0462	0.0165	0.9585
11.33	-22.1525	502.4859	31.9717	-198.9204	-46.5921	580.6461	2.3019	276.9384	-16.3399	86.7687	13.9735	258.3175	-0.0592	0.0182	-0.0073	-0.0462	0.0165	0.9585
11.3495	-20.9268	502.8609	30.5358	-198.4832	-44.6056	582.2671	2.1875	267.5637	-15.7815	83.483	13.438	248.7473	-0.0592	0.0182	-0.0073	-0.0462	0.0165	0.9585
11.369	-19.2456	502.9679	28.999	-198.0204	-42.2458	583.0387	2.5112	258.7338	-15.3396	80.4199	12.8749	239.671	-0.0592	0.0182	-0.0073	-0.0462	0.0165	0.9585
11.3885	-17.1837	503.8565	27.4604	-197.9717	-39.656	584.0777	3.1838	250.2129	-14.9327	77.522	12.2607	230.8829	-0.0592	0.0182	-0.0073	-0.0462	0.0165	0.9585
11.408	-14.8539	506.327	26.0329	-198.6541	-37.016	586.2952	4.1623	242.0365	-14.5018	74.8095	11.5714	222.4251	-0.0592	0.0182	-0.0073	-0.0462	0.0165	0.9585
11.4275	-12.4262	510.909	24.8332	-200.2533	-34.5353	590.3616	5.4381	234.358	-14.0226	72.3292	10.7964	214.4452	-0.0592	0.0182	-0.0073	-0.0462	0.0165	0.9585
11.447	-10.1304	517.862	23.9871	-202.8308	-32.4532	596.6891	6.9908	227.1875	-13.4966	70.0747	9.9428	206.9642	-0.0592	0.0182	-0.0073	-0.0462	0.0165	0.9585
11.4665	-8.2213	527.2297	23.6277	-206.3566	-31.017	605.4641	8.7291	220.2047	-12.9396	67.9308	9.042	199.7139	-0.0592	0.0182	-0.0073	-0.0462	0.0165	0.9585
11.486	-6.9008	538.9571	23.871	-210.7672	-30.4293	616.7296	10.4754	212.7426	-12.3737	65.6713	8.1468	192.1203	-0.0592	0.0182	-0.0073	-0.0462	0.0165	0.9585
11.5055	-6.2481	553.0166	24.7919	-216.024	-30.798	630.4876	12.0057	203.9404	-11.8189	63.009	7.3216	183.4363	-0.0592	0.0182	-0.0073	-0.0462	0.0165	0.9585
11.525	-6.1983	569.4899	26.4201	-222.1509	-32.125	646.7908	13.0927	192.993	-11.2836	59.6767	6.625	172.9656	-0.0592	0.0182	-0.0073	-0.0462	0.0165	0.9585
11.5445	-6.5707	588.6063	28.7433	-229.2444	-34.3226	665.8005	13.5443	179.3792	-10.7613	55.5023	6.0964	160.2696	-0.0592	0.0182	-0.0073	-0.0462	0.0165	0.9585
11.564	-7.1265	610.7062	31.7178	-237.4508	-37.2482	687.7776	13.2369	163.0006	-10.2272	50.4527	5.7433	145.2759	-0.0592	0.0182	-0.0073	-0.0462	0.0165	0.9585
11.5835	-7.649	636.13	35.2773	-246.9154	-40.743	712.99	12.1405	144.2201	-9.6423	44.6434	5.5386	128.3056	-0.0592	0.0182	-0.0073	-0.0462	0.0165	0.9585
11.603	-7.9986	665.0216	39.3312	-257.6996	-44.653	741.5281	10.3446	123.784	-8.9545	38.3124	5.4179	110.0059	-0.0592	0.0182	-0.0073	-0.0462	0.0165	0.9585
11.6225	-8.1124	697.0732	43.7668	-269.682	-48.8364	773.0382	8.0537	102.6517	-8.1144	31.765	5.2919	91.2073	-0.0592	0.0182	-0.0073	-0.0462	0.0165	0.9585
11.642	-7.9921	731.2893	48.4604	-282.4732	-53.1718	806.4716	5.5349	81.8168	-7.1036	25.3141	5.0779	72.7695	-0.0592	0.0182	-0.0073	-0.0462	0.0165	0.9585
11.6615	-7.6791	765.8824	53.2737	-295.3771	-57.5417	839.9596	3.0786	62.2128	-5.9473	19.2505	4.7196	55.4997	-0.0592	0.0182	-0.0073	-0.0462	0.0165	0.9585
11.681	-7.2111	798.4182	58.0252	-307.4546	-61.7836	870.9635	0.98594	44.6738	-4.705	13.8315	4.1855	40.1163	-0.0592	0.0182	-0.0073	-0.0462	0.0165	0.9585
11.7005	-6.5844	826.162	62.4836	-317.6633	-65.6639	896.639	-0.49001	29.905	-3.4679	9.2729	3.4821	27.2204	-0.0592	0.0182	-0.0073	-0.0462	0.0165	0.9585
11.72	-5.7499	846.509	66.4032	-325.0249	-68.9109	914.2821	-1.2684	18.3907	-2.3456	5.7213	2.6826	17.2131	-0.0592	0.0182	-0.0073	-0.0462	0.0165	0.9585
11.7395	-4.6307	857.446	69.56	-328.7995	-71.2664	921.8189	-1.5283	10.2042	-1.439	3.1966	1.9291	10.1357	-0.0592	0.0182	-0.0073	-0.0462	0.0165	0.9585
11.759	-3.1651	857.9989	71.7848	-328.6466	-72.5368	918.2791	-1.4726	4.9258	-0.77774	1.5679	1.3079	5.5976	-0.0592	0.0182	-0.0073	-0.0462	0.0165	0.9585
11.7785	-1.3242	848.4888	72.9844	-324.7168	-72.6208	904.0658	-1.2536	1.8763	-0.34129	0.62399	0.84421	2.9678	-0.0592	0.0182	-0.0073	-0.0462	0.0165	0.9585
11.798	0.87423	830.532	73.1453	-317.646	-71.5166	880.947	-0.97262	0.31384	-0.085202	0.13453	0.52432	1.5615	-0.0592	0.0182	-0.0073	-0.0462	0.0165	0.9585
11.8175	3.3634	806.7941	72.346	-308.4573	-69.3317	851.7832	-0.6883	-0.44776	0.042825	-0.11423	0.31338	0.75244	-0.0592	0.0182	-0.0073	-0.0462	0.0165	0.9585
11.837	6.0479	780.5302	70.7601	-298.3857	-66.2807	820.0207	-0.42551	-0.98221	0.096715	-0.30053	0.16553	0.011999	-0.0592	0.0182	-0.0073	-0.0462	0.0165	0.9585
11.8565	8.8357	755.0175	68.6388	-288.667	-62.6566	789.0803	-0.18339	-1.7187	0.12541	-0.55707	0.033291	-1.0596	-0.0592	0.0182	-0.0073	-0.0462	0.0165	0.9585
11.876	11.6739	733.0758	66.2678	-280.3611	-58.7686	761.86	0.055712	-2.9161	0.16821	-0.96342	-0.12625	-2.6963	-0.0592	0.0182	-0.0073	-0.0462	0.0165	0.9585
11.8955	14.5852	716.7455	63.9222	-274.2315	-54.8837	740.4053	0.31216	-4.6333	0.25146	-1.5347	-0.34394	-4.9255	-0.0592	0.0182	-0.0073	-0.0462	0.0165	0.9585
11.915	17.6587	707.0782	61.8433	-270.6633	-51.2062	725.7144	0.60115	-6.6835	0.38729	-2.2058	-0.63262	-7.5135	-0.0592	0.0182	-0.0073	-0.0462	0.0165	0.9585
11.9345	21.0065	704.0426	60.2304	-269.6227	-47.886	717.6788	0.92536	-8.5702	0.57084	-2.8111	-0.97952	-9.8787	-0.0592	0.0182	-0.0073	-0.0462	0.0165	0.9585
11.954	24.7334	706.5773	59.2353	-270.6752	-45.0271	715.166	1.2601	-9.4154	0.77216	-3.0597	-1.3355	-11.003	-0.0592	0.0182	-0.0073	-0.0462	0.0165	0.9585
11.9735	28.9058	712.7995	58.9274	-273.066	-42.6684	716.2556	1.5435	-7.8982	0.93074	-2.5166	-1.6025	-9.3561	-0.0592	0.0182	-0.0073	-0.0462	0.0165	0.9585
11.993	33.5021	720.262	59.2557	-275.8273	-40.7711	718.5237	1.6606	-2.229	0.95074	-0.59625	-1.621	-2.8564	-0.0592	0.0182	-0.0073	-0.0462	0.0165	0.9585
12.0125	38.3792	726.1975	60.0542	-277.8829	-39.2388	719.3054	1.4342	9.7836	0.69253	3.4151	-1.159	11.0489	-0.0592	0.0182	-0.0073	-0.0462	0.0165	0.9585
12.032	43.2667	727.7884	61.0678	-278.1599	-37.9452	715.9691	0.62237	30.5039	-0.028461	10.2844	0.088155	35.1285	-0.0592	0.0182	-0.0073	-0.0462	0.0165	0.9585
12.0515	47.7832	722.4351	61.9682	-275.6982	-36.7449	706.1729	-1.0698	62.0087	-1.4323	20.6785	2.48	71.839	-0.0592	0.0182	-0.0073	-0.0462	0.0165	0.9585
